<?xml version="1.0" encoding="utf-8"?>
<!-- Generator: Adobe Illustrator 16.0.0, SVG Export Plug-In . SVG Version: 6.00 Build 0)  -->
<!DOCTYPE svg PUBLIC "-//W3C//DTD SVG 1.1//EN" "http://www.w3.org/Graphics/SVG/1.1/DTD/svg11.dtd">
<svg version="1.1" id="Layer_1" xmlns="http://www.w3.org/2000/svg" xmlns:xlink="http://www.w3.org/1999/xlink" x="0px" y="0px"
	 width="100px" height="100px" viewBox="0 0 100 100" enable-background="new 0 0 100 100" xml:space="preserve">
<path d="M100,18.996c-3.742,1.656-7.711,2.743-11.775,3.225c4.286-2.562,7.494-6.597,9.025-11.35c-4.024,2.396-8.43,4.088-13.025,5
	c-7.723-8.299-20.71-8.764-29.008-1.041c-5.399,5.025-7.687,12.562-5.992,19.74C32.733,33.744,17.368,25.956,6.95,13.146
	c-5.508,9.401-2.722,21.466,6.35,27.5c-3.255-0.08-6.443-0.937-9.3-2.5c0,0,0,0.175,0,0.25c0.055,9.721,6.922,18.07,16.45,20
	c-3.025,0.821-6.197,0.941-9.275,0.351c2.691,8.358,10.396,14.084,19.175,14.25C23.11,78.65,14.187,81.722,5,81.721
	c-1.671,0.008-3.34-0.083-5-0.275c9.38,6.031,20.298,9.233,31.45,9.226c37.725,0,58.375-31.25,58.375-58.376
	c0-0.883,0-1.766,0-2.649C93.821,26.728,97.268,23.121,100,18.996z"/>
</svg>
