<?xml version="1.0" encoding="utf-8"?>
<!-- Generator: Adobe Illustrator 16.0.0, SVG Export Plug-In . SVG Version: 6.00 Build 0)  -->
<!DOCTYPE svg PUBLIC "-//W3C//DTD SVG 1.1//EN" "http://www.w3.org/Graphics/SVG/1.1/DTD/svg11.dtd">
<svg version="1.1" id="Layer_1" xmlns="http://www.w3.org/2000/svg" xmlns:xlink="http://www.w3.org/1999/xlink" x="0px" y="0px"
	 width="100px" height="100px" viewBox="0 0 100 100" enable-background="new 0 0 100 100" xml:space="preserve">
<g>
	<g>
		<path fill="#231F20" d="M92.598,0.001H7.381C3.309,0.001,0,3.229,0,7.206v85.578c0,3.98,3.309,7.215,7.381,7.215h85.217
			c4.079,0,7.402-3.234,7.402-7.215V7.206C100,3.229,96.677,0.001,92.598,0.001z M29.659,85.212H14.826V37.489h14.833V85.212z
			 M22.245,30.966c-4.753,0-8.601-3.854-8.601-8.602c0-4.742,3.847-8.596,8.601-8.596c4.743,0,8.596,3.854,8.596,8.596
			C30.841,27.112,26.988,30.966,22.245,30.966z M85.212,85.212H70.39V62.005c0-5.535-0.102-12.653-7.708-12.653
			c-7.717,0-8.9,6.028-8.9,12.253v23.607H38.962V37.489h14.225v6.521h0.198c1.98-3.752,6.819-7.707,14.035-7.707
			c15.019,0,17.792,9.885,17.792,22.732V85.212z"/>
	</g>
</g>
</svg>
